<svg width="439" height="27" viewBox="0 0 439 27" fill="none" xmlns="http://www.w3.org/2000/svg">
<path d="M11.272 6.61768L9.71356 8.17282L14.7757 13.2353L9.71356 18.2978L11.272 19.853L17.9036 13.2353L11.272 6.61768Z" fill="#5D62B5"/>
<path d="M10.5907 10.4228L9.72489 9.55884L6.04068 13.2353L9.72489 16.9118L10.5907 16.0478L7.7784 13.2353L10.5907 10.4228Z" fill="#5D62B5"/>
<path d="M43.7695 13.5352V13.9395C43.7695 14.5879 43.6816 15.1699 43.5059 15.6855C43.3301 16.2012 43.082 16.6406 42.7617 17.0039C42.4414 17.3633 42.0586 17.6387 41.6133 17.8301C41.1719 18.0215 40.6816 18.1172 40.1426 18.1172C39.6074 18.1172 39.1172 18.0215 38.6719 17.8301C38.2305 17.6387 37.8477 17.3633 37.5234 17.0039C37.1992 16.6406 36.9473 16.2012 36.7676 15.6855C36.5918 15.1699 36.5039 14.5879 36.5039 13.9395V13.5352C36.5039 12.8828 36.5918 12.3008 36.7676 11.7891C36.9434 11.2734 37.1914 10.834 37.5117 10.4707C37.8359 10.1074 38.2188 9.83008 38.6602 9.63867C39.1055 9.44727 39.5957 9.35156 40.1309 9.35156C40.6699 9.35156 41.1602 9.44727 41.6016 9.63867C42.0469 9.83008 42.4297 10.1074 42.75 10.4707C43.0742 10.834 43.3242 11.2734 43.5 11.7891C43.6797 12.3008 43.7695 12.8828 43.7695 13.5352ZM41.9941 13.9395V13.5234C41.9941 13.0703 41.9531 12.6719 41.8711 12.3281C41.7891 11.9844 41.668 11.6953 41.5078 11.4609C41.3477 11.2266 41.1523 11.0508 40.9219 10.9336C40.6914 10.8125 40.4277 10.752 40.1309 10.752C39.834 10.752 39.5703 10.8125 39.3398 10.9336C39.1133 11.0508 38.9199 11.2266 38.7598 11.4609C38.6035 11.6953 38.4844 11.9844 38.4023 12.3281C38.3203 12.6719 38.2793 13.0703 38.2793 13.5234V13.9395C38.2793 14.3887 38.3203 14.7871 38.4023 15.1348C38.4844 15.4785 38.6055 15.7695 38.7656 16.0078C38.9258 16.2422 39.1211 16.4199 39.3516 16.541C39.582 16.6621 39.8457 16.7227 40.1426 16.7227C40.4395 16.7227 40.7031 16.6621 40.9336 16.541C41.1641 16.4199 41.3574 16.2422 41.5137 16.0078C41.6699 15.7695 41.7891 15.4785 41.8711 15.1348C41.9531 14.7871 41.9941 14.3887 41.9941 13.9395ZM52.2461 9.46875H53.998V15.1055C53.998 15.7617 53.8574 16.3145 53.5762 16.7637C53.2988 17.2129 52.9141 17.5508 52.4219 17.7773C51.9336 18.0039 51.3711 18.1172 50.7344 18.1172C50.0977 18.1172 49.5312 18.0039 49.0352 17.7773C48.543 17.5508 48.1562 17.2129 47.875 16.7637C47.5977 16.3145 47.459 15.7617 47.459 15.1055V9.46875H49.2168V15.1055C49.2168 15.4883 49.2773 15.8008 49.3984 16.043C49.5195 16.2852 49.6934 16.4629 49.9199 16.5762C50.1504 16.6895 50.4219 16.7461 50.7344 16.7461C51.0547 16.7461 51.3262 16.6895 51.5488 16.5762C51.7754 16.4629 51.9473 16.2852 52.0645 16.043C52.1855 15.8008 52.2461 15.4883 52.2461 15.1055V9.46875ZM57.9453 9.46875H61.127C61.7793 9.46875 62.3398 9.56641 62.8086 9.76172C63.2812 9.95703 63.6445 10.2461 63.8984 10.6289C64.1523 11.0117 64.2793 11.4824 64.2793 12.041C64.2793 12.498 64.2012 12.8906 64.0449 13.2188C63.8926 13.543 63.6758 13.8145 63.3945 14.0332C63.1172 14.248 62.791 14.4199 62.416 14.5488L61.8594 14.8418H59.0938L59.082 13.4707H61.1387C61.4473 13.4707 61.7031 13.416 61.9062 13.3066C62.1094 13.1973 62.2617 13.0449 62.3633 12.8496C62.4688 12.6543 62.5215 12.4277 62.5215 12.1699C62.5215 11.8965 62.4707 11.6602 62.3691 11.4609C62.2676 11.2617 62.1133 11.1094 61.9062 11.0039C61.6992 10.8984 61.4395 10.8457 61.127 10.8457H59.7031V18H57.9453V9.46875ZM62.7148 18L60.7695 14.1973L62.627 14.1855L64.5957 17.918V18H62.7148ZM76.9434 14.959H74.7695V13.5879H76.9434C77.2793 13.5879 77.5527 13.5332 77.7637 13.4238C77.9746 13.3105 78.1289 13.1543 78.2266 12.9551C78.3242 12.7559 78.373 12.5312 78.373 12.2812C78.373 12.0273 78.3242 11.791 78.2266 11.5723C78.1289 11.3535 77.9746 11.1777 77.7637 11.0449C77.5527 10.9121 77.2793 10.8457 76.9434 10.8457H75.3789V18H73.6211V9.46875H76.9434C77.6113 9.46875 78.1836 9.58984 78.6602 9.83203C79.1406 10.0703 79.5078 10.4004 79.7617 10.8223C80.0156 11.2441 80.1426 11.7266 80.1426 12.2695C80.1426 12.8203 80.0156 13.2969 79.7617 13.6992C79.5078 14.1016 79.1406 14.4121 78.6602 14.6309C78.1836 14.8496 77.6113 14.959 76.9434 14.959ZM83.8555 9.46875H87.0371C87.6895 9.46875 88.25 9.56641 88.7188 9.76172C89.1914 9.95703 89.5547 10.2461 89.8086 10.6289C90.0625 11.0117 90.1895 11.4824 90.1895 12.041C90.1895 12.498 90.1113 12.8906 89.9551 13.2188C89.8027 13.543 89.5859 13.8145 89.3047 14.0332C89.0273 14.248 88.7012 14.4199 88.3262 14.5488L87.7695 14.8418H85.0039L84.9922 13.4707H87.0488C87.3574 13.4707 87.6133 13.416 87.8164 13.3066C88.0195 13.1973 88.1719 13.0449 88.2734 12.8496C88.3789 12.6543 88.4316 12.4277 88.4316 12.1699C88.4316 11.8965 88.3809 11.6602 88.2793 11.4609C88.1777 11.2617 88.0234 11.1094 87.8164 11.0039C87.6094 10.8984 87.3496 10.8457 87.0371 10.8457H85.6133V18H83.8555V9.46875ZM88.625 18L86.6797 14.1973L88.5371 14.1855L90.5059 17.918V18H88.625ZM101.051 13.5352V13.9395C101.051 14.5879 100.963 15.1699 100.787 15.6855C100.611 16.2012 100.363 16.6406 100.043 17.0039C99.7227 17.3633 99.3398 17.6387 98.8945 17.8301C98.4531 18.0215 97.9629 18.1172 97.4238 18.1172C96.8887 18.1172 96.3984 18.0215 95.9531 17.8301C95.5117 17.6387 95.1289 17.3633 94.8047 17.0039C94.4805 16.6406 94.2285 16.2012 94.0488 15.6855C93.873 15.1699 93.7852 14.5879 93.7852 13.9395V13.5352C93.7852 12.8828 93.873 12.3008 94.0488 11.7891C94.2246 11.2734 94.4727 10.834 94.793 10.4707C95.1172 10.1074 95.5 9.83008 95.9414 9.63867C96.3867 9.44727 96.877 9.35156 97.4121 9.35156C97.9512 9.35156 98.4414 9.44727 98.8828 9.63867C99.3281 9.83008 99.7109 10.1074 100.031 10.4707C100.355 10.834 100.605 11.2734 100.781 11.7891C100.961 12.3008 101.051 12.8828 101.051 13.5352ZM99.2754 13.9395V13.5234C99.2754 13.0703 99.2344 12.6719 99.1523 12.3281C99.0703 11.9844 98.9492 11.6953 98.7891 11.4609C98.6289 11.2266 98.4336 11.0508 98.2031 10.9336C97.9727 10.8125 97.709 10.752 97.4121 10.752C97.1152 10.752 96.8516 10.8125 96.6211 10.9336C96.3945 11.0508 96.2012 11.2266 96.041 11.4609C95.8848 11.6953 95.7656 11.9844 95.6836 12.3281C95.6016 12.6719 95.5605 13.0703 95.5605 13.5234V13.9395C95.5605 14.3887 95.6016 14.7871 95.6836 15.1348C95.7656 15.4785 95.8867 15.7695 96.0469 16.0078C96.207 16.2422 96.4023 16.4199 96.6328 16.541C96.8633 16.6621 97.127 16.7227 97.4238 16.7227C97.7207 16.7227 97.9844 16.6621 98.2148 16.541C98.4453 16.4199 98.6387 16.2422 98.7949 16.0078C98.9512 15.7695 99.0703 15.4785 99.1523 15.1348C99.2344 14.7871 99.2754 14.3887 99.2754 13.9395ZM105.619 9.46875H107.107L109.299 15.7324L111.49 9.46875H112.979L109.896 18H108.701L105.619 9.46875ZM104.816 9.46875H106.299L106.568 15.5742V18H104.816V9.46875ZM112.299 9.46875H113.787V18H112.029V15.5742L112.299 9.46875ZM119.697 9.46875V18H117.945V9.46875H119.697ZM128.285 15.7676C128.285 15.6152 128.262 15.4785 128.215 15.3574C128.172 15.2324 128.09 15.1191 127.969 15.0176C127.848 14.9121 127.678 14.8086 127.459 14.707C127.24 14.6055 126.957 14.5 126.609 14.3906C126.223 14.2656 125.855 14.125 125.508 13.9688C125.164 13.8125 124.859 13.6309 124.594 13.4238C124.332 13.2129 124.125 12.9688 123.973 12.6914C123.824 12.4141 123.75 12.0918 123.75 11.7246C123.75 11.3691 123.828 11.0469 123.984 10.7578C124.141 10.4648 124.359 10.2148 124.641 10.0078C124.922 9.79688 125.254 9.63477 125.637 9.52148C126.023 9.4082 126.447 9.35156 126.908 9.35156C127.537 9.35156 128.086 9.46484 128.555 9.69141C129.023 9.91797 129.387 10.2285 129.645 10.623C129.906 11.0176 130.037 11.4688 130.037 11.9766H128.291C128.291 11.7266 128.238 11.5078 128.133 11.3203C128.031 11.1289 127.875 10.9785 127.664 10.8691C127.457 10.7598 127.195 10.7051 126.879 10.7051C126.574 10.7051 126.32 10.752 126.117 10.8457C125.914 10.9355 125.762 11.0586 125.66 11.2148C125.559 11.3672 125.508 11.5391 125.508 11.7305C125.508 11.875 125.543 12.0059 125.613 12.123C125.688 12.2402 125.797 12.3496 125.941 12.4512C126.086 12.5527 126.264 12.6484 126.475 12.7383C126.686 12.8281 126.93 12.916 127.207 13.002C127.672 13.1426 128.08 13.3008 128.432 13.4766C128.787 13.6523 129.084 13.8496 129.322 14.0684C129.561 14.2871 129.74 14.5352 129.861 14.8125C129.982 15.0898 130.043 15.4043 130.043 15.7559C130.043 16.127 129.971 16.459 129.826 16.752C129.682 17.0449 129.473 17.293 129.199 17.4961C128.926 17.6992 128.6 17.8535 128.221 17.959C127.842 18.0645 127.418 18.1172 126.949 18.1172C126.527 18.1172 126.111 18.0625 125.701 17.9531C125.291 17.8398 124.918 17.6699 124.582 17.4434C124.25 17.2168 123.984 16.9277 123.785 16.5762C123.586 16.2246 123.486 15.8086 123.486 15.3281H125.25C125.25 15.5938 125.291 15.8184 125.373 16.002C125.455 16.1855 125.57 16.334 125.719 16.4473C125.871 16.5605 126.051 16.6426 126.258 16.6934C126.469 16.7441 126.699 16.7695 126.949 16.7695C127.254 16.7695 127.504 16.7266 127.699 16.6406C127.898 16.5547 128.045 16.4355 128.139 16.2832C128.236 16.1309 128.285 15.959 128.285 15.7676ZM139.463 16.6289V18H134.922V16.6289H139.463ZM135.496 9.46875V18H133.738V9.46875H135.496ZM138.871 12.9434V14.2793H134.922V12.9434H138.871ZM139.457 9.46875V10.8457H134.922V9.46875H139.457ZM151.975 9.46875V18H150.223V9.46875H151.975ZM154.6 9.46875V10.8457H147.639V9.46875H154.6ZM164.945 13.5352V13.9395C164.945 14.5879 164.857 15.1699 164.682 15.6855C164.506 16.2012 164.258 16.6406 163.938 17.0039C163.617 17.3633 163.234 17.6387 162.789 17.8301C162.348 18.0215 161.857 18.1172 161.318 18.1172C160.783 18.1172 160.293 18.0215 159.848 17.8301C159.406 17.6387 159.023 17.3633 158.699 17.0039C158.375 16.6406 158.123 16.2012 157.943 15.6855C157.768 15.1699 157.68 14.5879 157.68 13.9395V13.5352C157.68 12.8828 157.768 12.3008 157.943 11.7891C158.119 11.2734 158.367 10.834 158.688 10.4707C159.012 10.1074 159.395 9.83008 159.836 9.63867C160.281 9.44727 160.771 9.35156 161.307 9.35156C161.846 9.35156 162.336 9.44727 162.777 9.63867C163.223 9.83008 163.605 10.1074 163.926 10.4707C164.25 10.834 164.5 11.2734 164.676 11.7891C164.855 12.3008 164.945 12.8828 164.945 13.5352ZM163.17 13.9395V13.5234C163.17 13.0703 163.129 12.6719 163.047 12.3281C162.965 11.9844 162.844 11.6953 162.684 11.4609C162.523 11.2266 162.328 11.0508 162.098 10.9336C161.867 10.8125 161.604 10.752 161.307 10.752C161.01 10.752 160.746 10.8125 160.516 10.9336C160.289 11.0508 160.096 11.2266 159.936 11.4609C159.779 11.6953 159.66 11.9844 159.578 12.3281C159.496 12.6719 159.455 13.0703 159.455 13.5234V13.9395C159.455 14.3887 159.496 14.7871 159.578 15.1348C159.66 15.4785 159.781 15.7695 159.941 16.0078C160.102 16.2422 160.297 16.4199 160.527 16.541C160.758 16.6621 161.021 16.7227 161.318 16.7227C161.615 16.7227 161.879 16.6621 162.109 16.541C162.34 16.4199 162.533 16.2422 162.689 16.0078C162.846 15.7695 162.965 15.4785 163.047 15.1348C163.129 14.7871 163.17 14.3887 163.17 13.9395ZM175.371 9.46875L177.152 13.3594L178.934 9.46875H180.85L178.043 14.8945V18H176.262V14.8945L173.449 9.46875H175.371ZM190.961 13.5352V13.9395C190.961 14.5879 190.873 15.1699 190.697 15.6855C190.521 16.2012 190.273 16.6406 189.953 17.0039C189.633 17.3633 189.25 17.6387 188.805 17.8301C188.363 18.0215 187.873 18.1172 187.334 18.1172C186.799 18.1172 186.309 18.0215 185.863 17.8301C185.422 17.6387 185.039 17.3633 184.715 17.0039C184.391 16.6406 184.139 16.2012 183.959 15.6855C183.783 15.1699 183.695 14.5879 183.695 13.9395V13.5352C183.695 12.8828 183.783 12.3008 183.959 11.7891C184.135 11.2734 184.383 10.834 184.703 10.4707C185.027 10.1074 185.41 9.83008 185.852 9.63867C186.297 9.44727 186.787 9.35156 187.322 9.35156C187.861 9.35156 188.352 9.44727 188.793 9.63867C189.238 9.83008 189.621 10.1074 189.941 10.4707C190.266 10.834 190.516 11.2734 190.691 11.7891C190.871 12.3008 190.961 12.8828 190.961 13.5352ZM189.186 13.9395V13.5234C189.186 13.0703 189.145 12.6719 189.062 12.3281C188.98 11.9844 188.859 11.6953 188.699 11.4609C188.539 11.2266 188.344 11.0508 188.113 10.9336C187.883 10.8125 187.619 10.752 187.322 10.752C187.025 10.752 186.762 10.8125 186.531 10.9336C186.305 11.0508 186.111 11.2266 185.951 11.4609C185.795 11.6953 185.676 11.9844 185.594 12.3281C185.512 12.6719 185.471 13.0703 185.471 13.5234V13.9395C185.471 14.3887 185.512 14.7871 185.594 15.1348C185.676 15.4785 185.797 15.7695 185.957 16.0078C186.117 16.2422 186.312 16.4199 186.543 16.541C186.773 16.6621 187.037 16.7227 187.334 16.7227C187.631 16.7227 187.895 16.6621 188.125 16.541C188.355 16.4199 188.549 16.2422 188.705 16.0078C188.861 15.7695 188.98 15.4785 189.062 15.1348C189.145 14.7871 189.186 14.3887 189.186 13.9395ZM199.438 9.46875H201.189V15.1055C201.189 15.7617 201.049 16.3145 200.768 16.7637C200.49 17.2129 200.105 17.5508 199.613 17.7773C199.125 18.0039 198.562 18.1172 197.926 18.1172C197.289 18.1172 196.723 18.0039 196.227 17.7773C195.734 17.5508 195.348 17.2129 195.066 16.7637C194.789 16.3145 194.65 15.7617 194.65 15.1055V9.46875H196.408V15.1055C196.408 15.4883 196.469 15.8008 196.59 16.043C196.711 16.2852 196.885 16.4629 197.111 16.5762C197.342 16.6895 197.613 16.7461 197.926 16.7461C198.246 16.7461 198.518 16.6895 198.74 16.5762C198.967 16.4629 199.139 16.2852 199.256 16.043C199.377 15.8008 199.438 15.4883 199.438 15.1055V9.46875Z" fill="#5D62B5"/>
</svg>
