<svg width="439" height="27" viewBox="0 0 439 27" fill="none" xmlns="http://www.w3.org/2000/svg">
<path d="M11.2717 6.61768L9.71329 8.17282L14.7754 13.2353L9.71329 18.2978L11.2717 19.853L17.9033 13.2353L11.2717 6.61768Z" fill="white"/>
<path d="M10.5904 10.4228L9.72462 9.55884L6.04041 13.2353L9.72462 16.9118L10.5904 16.0478L7.77812 13.2353L10.5904 10.4228Z" fill="white"/>
<path d="M38.8181 16.6465L40.5173 9.46875H41.4665L41.6833 10.6641L39.8728 18H38.8532L38.8181 16.6465ZM37.945 9.46875L39.3513 16.6465L39.2341 18H38.0974L36.2048 9.46875H37.945ZM43.1775 16.6172L44.5661 9.46875H46.3064L44.4196 18H43.2829L43.1775 16.6172ZM41.9997 9.46875L43.7107 16.6758L43.6638 18H42.6443L40.822 10.6582L41.0564 9.46875H41.9997ZM55.4509 12.9434V14.3145H50.9978V12.9434H55.4509ZM51.5193 9.46875V18H49.7614V9.46875H51.5193ZM56.7048 9.46875V18H54.9529V9.46875H56.7048ZM67.7419 13.5352V13.9395C67.7419 14.5879 67.654 15.1699 67.4782 15.6855C67.3025 16.2012 67.0544 16.6406 66.7341 17.0039C66.4138 17.3633 66.031 17.6387 65.5857 17.8301C65.1443 18.0215 64.654 18.1172 64.115 18.1172C63.5798 18.1172 63.0896 18.0215 62.6443 17.8301C62.2029 17.6387 61.82 17.3633 61.4958 17.0039C61.1716 16.6406 60.9196 16.2012 60.74 15.6855C60.5642 15.1699 60.4763 14.5879 60.4763 13.9395V13.5352C60.4763 12.8828 60.5642 12.3008 60.74 11.7891C60.9157 11.2734 61.1638 10.834 61.4841 10.4707C61.8083 10.1074 62.1911 9.83008 62.6325 9.63867C63.0779 9.44727 63.5681 9.35156 64.1032 9.35156C64.6423 9.35156 65.1325 9.44727 65.5739 9.63867C66.0193 9.83008 66.4021 10.1074 66.7224 10.4707C67.0466 10.834 67.2966 11.2734 67.4724 11.7891C67.6521 12.3008 67.7419 12.8828 67.7419 13.5352ZM65.9665 13.9395V13.5234C65.9665 13.0703 65.9255 12.6719 65.8435 12.3281C65.7614 11.9844 65.6404 11.6953 65.4802 11.4609C65.32 11.2266 65.1247 11.0508 64.8943 10.9336C64.6638 10.8125 64.4001 10.752 64.1032 10.752C63.8064 10.752 63.5427 10.8125 63.3122 10.9336C63.0857 11.0508 62.8923 11.2266 62.7321 11.4609C62.5759 11.6953 62.4568 11.9844 62.3747 12.3281C62.2927 12.6719 62.2517 13.0703 62.2517 13.5234V13.9395C62.2517 14.3887 62.2927 14.7871 62.3747 15.1348C62.4568 15.4785 62.5779 15.7695 62.738 16.0078C62.8982 16.2422 63.0935 16.4199 63.3239 16.541C63.5544 16.6621 63.8181 16.7227 64.115 16.7227C64.4118 16.7227 64.6755 16.6621 64.906 16.541C65.1364 16.4199 65.3298 16.2422 65.4861 16.0078C65.6423 15.7695 65.7614 15.4785 65.8435 15.1348C65.9255 14.7871 65.9665 14.3887 65.9665 13.9395ZM79.0525 16.6465L80.7517 9.46875H81.7009L81.9177 10.6641L80.1071 18H79.0876L79.0525 16.6465ZM78.1794 9.46875L79.5857 16.6465L79.4685 18H78.3318L76.4392 9.46875H78.1794ZM83.4118 16.6172L84.8005 9.46875H86.5407L84.654 18H83.5173L83.4118 16.6172ZM82.2341 9.46875L83.945 16.6758L83.8982 18H82.8786L81.0564 10.6582L81.2907 9.46875H82.2341ZM95.7204 16.6289V18H91.1794V16.6289H95.7204ZM91.7536 9.46875V18H89.9958V9.46875H91.7536ZM95.1286 12.9434V14.2793H91.1794V12.9434H95.1286ZM95.7146 9.46875V10.8457H91.1794V9.46875H95.7146ZM108.203 10.9277L105.883 18H104.013L107.183 9.46875H108.373L108.203 10.9277ZM110.131 18L107.804 10.9277L107.617 9.46875H108.818L112.006 18H110.131ZM110.025 14.8242V16.2012H105.519V14.8242H110.025ZM115.297 9.46875H118.478C119.131 9.46875 119.691 9.56641 120.16 9.76172C120.633 9.95703 120.996 10.2461 121.25 10.6289C121.504 11.0117 121.631 11.4824 121.631 12.041C121.631 12.498 121.552 12.8906 121.396 13.2188C121.244 13.543 121.027 13.8145 120.746 14.0332C120.468 14.248 120.142 14.4199 119.767 14.5488L119.211 14.8418H116.445L116.433 13.4707H118.49C118.799 13.4707 119.054 13.416 119.258 13.3066C119.461 13.1973 119.613 13.0449 119.715 12.8496C119.82 12.6543 119.873 12.4277 119.873 12.1699C119.873 11.8965 119.822 11.6602 119.72 11.4609C119.619 11.2617 119.465 11.1094 119.258 11.0039C119.051 10.8984 118.791 10.8457 118.478 10.8457H117.054V18H115.297V9.46875ZM120.066 18L118.121 14.1973L119.978 14.1855L121.947 17.918V18H120.066ZM131.209 16.6289V18H126.668V16.6289H131.209ZM127.242 9.46875V18H125.484V9.46875H127.242ZM130.617 12.9434V14.2793H126.668V12.9434H130.617ZM131.203 9.46875V10.8457H126.668V9.46875H131.203Z" fill="#F5F5F5"/>
</svg>
